<svg xmlns="http://www.w3.org/2000/svg" width="760" height="878" viewBox="0 0 760 878">
<rect width="760" height="878" fill="#20282c"/>
<g font-family="sans-serif" fill="#eee8d7">
<text x="24" y="29" font-size="21">stores · seed 9280498216980189725</text>
<text x="24" y="53" font-size="13">Resolved grid plan · rooms, passages, protected thresholds · not a game capture</text>
<rect x="276" y="90" width="16" height="16" fill="#8d8eaf" stroke="#20282c" stroke-width="1"/>
<rect x="292" y="90" width="16" height="16" fill="#8d8eaf" stroke="#20282c" stroke-width="1"/>
<rect x="308" y="90" width="16" height="16" fill="#8d8eaf" stroke="#20282c" stroke-width="1"/>
<rect x="260" y="106" width="16" height="16" fill="#8d8eaf" stroke="#20282c" stroke-width="1"/>
<rect x="276" y="106" width="16" height="16" fill="#8d8eaf" stroke="#20282c" stroke-width="1"/>
<rect x="292" y="106" width="16" height="16" fill="#8d8eaf" stroke="#20282c" stroke-width="1"/>
<rect x="308" y="106" width="16" height="16" fill="#8d8eaf" stroke="#20282c" stroke-width="1"/>
<rect x="324" y="106" width="16" height="16" fill="#8d8eaf" stroke="#20282c" stroke-width="1"/>
<rect x="228" y="122" width="16" height="16" fill="#525e63" stroke="#20282c" stroke-width="1"/>
<rect x="244" y="122" width="16" height="16" fill="#525e63" stroke="#20282c" stroke-width="1"/>
<rect x="260" y="122" width="16" height="16" fill="#8d8eaf" stroke="#20282c" stroke-width="1"/>
<rect x="276" y="122" width="16" height="16" fill="#8d8eaf" stroke="#20282c" stroke-width="1"/>
<rect x="292" y="122" width="16" height="16" fill="#8d8eaf" stroke="#20282c" stroke-width="1"/>
<rect x="308" y="122" width="16" height="16" fill="#8d8eaf" stroke="#20282c" stroke-width="1"/>
<rect x="324" y="122" width="16" height="16" fill="#8d8eaf" stroke="#20282c" stroke-width="1"/>
<rect x="228" y="138" width="16" height="16" fill="#525e63" stroke="#20282c" stroke-width="1"/>
<rect x="260" y="138" width="16" height="16" fill="#8d8eaf" stroke="#20282c" stroke-width="1"/>
<rect x="276" y="138" width="16" height="16" fill="#8d8eaf" stroke="#20282c" stroke-width="1"/>
<rect x="292" y="138" width="16" height="16" fill="#8d8eaf" stroke="#20282c" stroke-width="1"/>
<rect x="308" y="138" width="16" height="16" fill="#8d8eaf" stroke="#20282c" stroke-width="1"/>
<rect x="324" y="138" width="16" height="16" fill="#8d8eaf" stroke="#20282c" stroke-width="1"/>
<rect x="228" y="154" width="16" height="16" fill="#525e63" stroke="#20282c" stroke-width="1"/>
<rect x="244" y="154" width="16" height="16" fill="#525e63" stroke="#20282c" stroke-width="1"/>
<rect x="292" y="154" width="16" height="16" fill="#8d8eaf" stroke="#20282c" stroke-width="1"/>
<rect x="228" y="170" width="16" height="16" fill="#525e63" stroke="#20282c" stroke-width="1"/>
<rect x="244" y="170" width="16" height="16" fill="#525e63" stroke="#20282c" stroke-width="1"/>
<rect x="292" y="170" width="16" height="16" fill="#525e63" stroke="#20282c" stroke-width="1"/>
<rect x="308" y="170" width="16" height="16" fill="#525e63" stroke="#20282c" stroke-width="1"/>
<rect x="228" y="186" width="16" height="16" fill="#525e63" stroke="#20282c" stroke-width="1"/>
<rect x="244" y="186" width="16" height="16" fill="#525e63" stroke="#20282c" stroke-width="1"/>
<rect x="308" y="186" width="16" height="16" fill="#525e63" stroke="#20282c" stroke-width="1"/>
<rect x="324" y="186" width="16" height="16" fill="#525e63" stroke="#20282c" stroke-width="1"/>
<rect x="228" y="202" width="16" height="16" fill="#525e63" stroke="#20282c" stroke-width="1"/>
<rect x="244" y="202" width="16" height="16" fill="#525e63" stroke="#20282c" stroke-width="1"/>
<rect x="308" y="202" width="16" height="16" fill="#525e63" stroke="#20282c" stroke-width="1"/>
<rect x="324" y="202" width="16" height="16" fill="#525e63" stroke="#20282c" stroke-width="1"/>
<rect x="228" y="218" width="16" height="16" fill="#525e63" stroke="#20282c" stroke-width="1"/>
<rect x="244" y="218" width="16" height="16" fill="#525e63" stroke="#20282c" stroke-width="1"/>
<rect x="308" y="218" width="16" height="16" fill="#525e63" stroke="#20282c" stroke-width="1"/>
<rect x="324" y="218" width="16" height="16" fill="#525e63" stroke="#20282c" stroke-width="1"/>
<rect x="228" y="234" width="16" height="16" fill="#525e63" stroke="#20282c" stroke-width="1"/>
<rect x="244" y="234" width="16" height="16" fill="#525e63" stroke="#20282c" stroke-width="1"/>
<rect x="308" y="234" width="16" height="16" fill="#525e63" stroke="#20282c" stroke-width="1"/>
<rect x="324" y="234" width="16" height="16" fill="#525e63" stroke="#20282c" stroke-width="1"/>
<rect x="228" y="250" width="16" height="16" fill="#525e63" stroke="#20282c" stroke-width="1"/>
<rect x="244" y="250" width="16" height="16" fill="#525e63" stroke="#20282c" stroke-width="1"/>
<rect x="292" y="250" width="16" height="16" fill="#525e63" stroke="#20282c" stroke-width="1"/>
<rect x="308" y="250" width="16" height="16" fill="#525e63" stroke="#20282c" stroke-width="1"/>
<rect x="212" y="266" width="16" height="16" fill="#525e63" stroke="#20282c" stroke-width="1"/>
<rect x="228" y="266" width="16" height="16" fill="#525e63" stroke="#20282c" stroke-width="1"/>
<rect x="292" y="266" width="16" height="16" fill="#525e63" stroke="#20282c" stroke-width="1"/>
<rect x="308" y="266" width="16" height="16" fill="#525e63" stroke="#20282c" stroke-width="1"/>
<rect x="84" y="282" width="16" height="16" fill="#525e63" stroke="#20282c" stroke-width="1"/>
<rect x="100" y="282" width="16" height="16" fill="#525e63" stroke="#20282c" stroke-width="1"/>
<rect x="116" y="282" width="16" height="16" fill="#525e63" stroke="#20282c" stroke-width="1"/>
<rect x="132" y="282" width="16" height="16" fill="#525e63" stroke="#20282c" stroke-width="1"/>
<rect x="148" y="282" width="16" height="16" fill="#525e63" stroke="#20282c" stroke-width="1"/>
<rect x="164" y="282" width="16" height="16" fill="#525e63" stroke="#20282c" stroke-width="1"/>
<rect x="180" y="282" width="16" height="16" fill="#525e63" stroke="#20282c" stroke-width="1"/>
<rect x="196" y="282" width="16" height="16" fill="#525e63" stroke="#20282c" stroke-width="1"/>
<rect x="212" y="282" width="16" height="16" fill="#525e63" stroke="#20282c" stroke-width="1"/>
<rect x="292" y="282" width="16" height="16" fill="#525e63" stroke="#20282c" stroke-width="1"/>
<rect x="308" y="282" width="16" height="16" fill="#525e63" stroke="#20282c" stroke-width="1"/>
<rect x="84" y="298" width="16" height="16" fill="#525e63" stroke="#20282c" stroke-width="1"/>
<rect x="116" y="298" width="16" height="16" fill="#525e63" stroke="#20282c" stroke-width="1"/>
<rect x="132" y="298" width="16" height="16" fill="#525e63" stroke="#20282c" stroke-width="1"/>
<rect x="148" y="298" width="16" height="16" fill="#525e63" stroke="#20282c" stroke-width="1"/>
<rect x="164" y="298" width="16" height="16" fill="#525e63" stroke="#20282c" stroke-width="1"/>
<rect x="180" y="298" width="16" height="16" fill="#525e63" stroke="#20282c" stroke-width="1"/>
<rect x="196" y="298" width="16" height="16" fill="#525e63" stroke="#20282c" stroke-width="1"/>
<rect x="292" y="298" width="16" height="16" fill="#525e63" stroke="#20282c" stroke-width="1"/>
<rect x="68" y="314" width="16" height="16" fill="#aa9272" stroke="#20282c" stroke-width="1"/>
<rect x="84" y="314" width="16" height="16" fill="#aa9272" stroke="#20282c" stroke-width="1"/>
<rect x="100" y="314" width="16" height="16" fill="#aa9272" stroke="#20282c" stroke-width="1"/>
<rect x="260" y="314" width="16" height="16" fill="#b6a36c" stroke="#20282c" stroke-width="1"/>
<rect x="276" y="314" width="16" height="16" fill="#b6a36c" stroke="#20282c" stroke-width="1"/>
<rect x="292" y="314" width="16" height="16" fill="#b6a36c" stroke="#20282c" stroke-width="1"/>
<rect x="308" y="314" width="16" height="16" fill="#b6a36c" stroke="#20282c" stroke-width="1"/>
<rect x="324" y="314" width="16" height="16" fill="#b6a36c" stroke="#20282c" stroke-width="1"/>
<rect x="500" y="314" width="16" height="16" fill="#96a76f" stroke="#20282c" stroke-width="1"/>
<rect x="516" y="314" width="16" height="16" fill="#96a76f" stroke="#20282c" stroke-width="1"/>
<rect x="532" y="314" width="16" height="16" fill="#96a76f" stroke="#20282c" stroke-width="1"/>
<rect x="68" y="330" width="16" height="16" fill="#aa9272" stroke="#20282c" stroke-width="1"/>
<rect x="84" y="330" width="16" height="16" fill="#aa9272" stroke="#20282c" stroke-width="1"/>
<rect x="100" y="330" width="16" height="16" fill="#aa9272" stroke="#20282c" stroke-width="1"/>
<rect x="260" y="330" width="16" height="16" fill="#b6a36c" stroke="#20282c" stroke-width="1"/>
<rect x="276" y="330" width="16" height="16" fill="#b6a36c" stroke="#20282c" stroke-width="1"/>
<rect x="292" y="330" width="16" height="16" fill="#b6a36c" stroke="#20282c" stroke-width="1"/>
<rect x="308" y="330" width="16" height="16" fill="#b6a36c" stroke="#20282c" stroke-width="1"/>
<rect x="324" y="330" width="16" height="16" fill="#b6a36c" stroke="#20282c" stroke-width="1"/>
<rect x="484" y="330" width="16" height="16" fill="#96a76f" stroke="#20282c" stroke-width="1"/>
<rect x="500" y="330" width="16" height="16" fill="#96a76f" stroke="#20282c" stroke-width="1"/>
<rect x="516" y="330" width="16" height="16" fill="#96a76f" stroke="#20282c" stroke-width="1"/>
<rect x="532" y="330" width="16" height="16" fill="#96a76f" stroke="#20282c" stroke-width="1"/>
<rect x="548" y="330" width="16" height="16" fill="#96a76f" stroke="#20282c" stroke-width="1"/>
<rect x="36" y="346" width="16" height="16" fill="#aa9272" stroke="#20282c" stroke-width="1"/>
<rect x="52" y="346" width="16" height="16" fill="#aa9272" stroke="#20282c" stroke-width="1"/>
<rect x="68" y="346" width="16" height="16" fill="#aa9272" stroke="#20282c" stroke-width="1"/>
<rect x="84" y="346" width="16" height="16" fill="#aa9272" stroke="#20282c" stroke-width="1"/>
<rect x="100" y="346" width="16" height="16" fill="#aa9272" stroke="#20282c" stroke-width="1"/>
<rect x="116" y="346" width="16" height="16" fill="#aa9272" stroke="#20282c" stroke-width="1"/>
<rect x="132" y="346" width="16" height="16" fill="#aa9272" stroke="#20282c" stroke-width="1"/>
<rect x="148" y="346" width="16" height="16" fill="#525e63" stroke="#20282c" stroke-width="1"/>
<rect x="164" y="346" width="16" height="16" fill="#525e63" stroke="#20282c" stroke-width="1"/>
<rect x="180" y="346" width="16" height="16" fill="#525e63" stroke="#20282c" stroke-width="1"/>
<rect x="196" y="346" width="16" height="16" fill="#525e63" stroke="#20282c" stroke-width="1"/>
<rect x="212" y="346" width="16" height="16" fill="#525e63" stroke="#20282c" stroke-width="1"/>
<rect x="228" y="346" width="16" height="16" fill="#525e63" stroke="#20282c" stroke-width="1"/>
<rect x="244" y="346" width="16" height="16" fill="#525e63" stroke="#20282c" stroke-width="1"/>
<rect x="292" y="346" width="16" height="16" fill="#b6a36c" stroke="#20282c" stroke-width="1"/>
<rect x="340" y="346" width="16" height="16" fill="#525e63" stroke="#20282c" stroke-width="1"/>
<rect x="356" y="346" width="16" height="16" fill="#525e63" stroke="#20282c" stroke-width="1"/>
<rect x="372" y="346" width="16" height="16" fill="#525e63" stroke="#20282c" stroke-width="1"/>
<rect x="388" y="346" width="16" height="16" fill="#525e63" stroke="#20282c" stroke-width="1"/>
<rect x="404" y="346" width="16" height="16" fill="#525e63" stroke="#20282c" stroke-width="1"/>
<rect x="420" y="346" width="16" height="16" fill="#525e63" stroke="#20282c" stroke-width="1"/>
<rect x="436" y="346" width="16" height="16" fill="#525e63" stroke="#20282c" stroke-width="1"/>
<rect x="452" y="346" width="16" height="16" fill="#525e63" stroke="#20282c" stroke-width="1"/>
<rect x="468" y="346" width="16" height="16" fill="#525e63" stroke="#20282c" stroke-width="1"/>
<rect x="484" y="346" width="16" height="16" fill="#96a76f" stroke="#20282c" stroke-width="1"/>
<rect x="500" y="346" width="16" height="16" fill="#96a76f" stroke="#20282c" stroke-width="1"/>
<rect x="516" y="346" width="16" height="16" fill="#96a76f" stroke="#20282c" stroke-width="1"/>
<rect x="532" y="346" width="16" height="16" fill="#96a76f" stroke="#20282c" stroke-width="1"/>
<rect x="548" y="346" width="16" height="16" fill="#96a76f" stroke="#20282c" stroke-width="1"/>
<rect x="68" y="362" width="16" height="16" fill="#aa9272" stroke="#20282c" stroke-width="1"/>
<rect x="84" y="362" width="16" height="16" fill="#aa9272" stroke="#20282c" stroke-width="1"/>
<rect x="100" y="362" width="16" height="16" fill="#aa9272" stroke="#20282c" stroke-width="1"/>
<rect x="164" y="362" width="16" height="16" fill="#525e63" stroke="#20282c" stroke-width="1"/>
<rect x="180" y="362" width="16" height="16" fill="#525e63" stroke="#20282c" stroke-width="1"/>
<rect x="196" y="362" width="16" height="16" fill="#525e63" stroke="#20282c" stroke-width="1"/>
<rect x="212" y="362" width="16" height="16" fill="#525e63" stroke="#20282c" stroke-width="1"/>
<rect x="228" y="362" width="16" height="16" fill="#525e63" stroke="#20282c" stroke-width="1"/>
<rect x="244" y="362" width="16" height="16" fill="#525e63" stroke="#20282c" stroke-width="1"/>
<rect x="260" y="362" width="16" height="16" fill="#b6a36c" stroke="#20282c" stroke-width="1"/>
<rect x="276" y="362" width="16" height="16" fill="#b6a36c" stroke="#20282c" stroke-width="1"/>
<rect x="292" y="362" width="16" height="16" fill="#b6a36c" stroke="#20282c" stroke-width="1"/>
<rect x="308" y="362" width="16" height="16" fill="#b6a36c" stroke="#20282c" stroke-width="1"/>
<rect x="324" y="362" width="16" height="16" fill="#b6a36c" stroke="#20282c" stroke-width="1"/>
<rect x="340" y="362" width="16" height="16" fill="#525e63" stroke="#20282c" stroke-width="1"/>
<rect x="356" y="362" width="16" height="16" fill="#525e63" stroke="#20282c" stroke-width="1"/>
<rect x="372" y="362" width="16" height="16" fill="#525e63" stroke="#20282c" stroke-width="1"/>
<rect x="388" y="362" width="16" height="16" fill="#525e63" stroke="#20282c" stroke-width="1"/>
<rect x="404" y="362" width="16" height="16" fill="#525e63" stroke="#20282c" stroke-width="1"/>
<rect x="420" y="362" width="16" height="16" fill="#525e63" stroke="#20282c" stroke-width="1"/>
<rect x="436" y="362" width="16" height="16" fill="#525e63" stroke="#20282c" stroke-width="1"/>
<rect x="452" y="362" width="16" height="16" fill="#525e63" stroke="#20282c" stroke-width="1"/>
<rect x="484" y="362" width="16" height="16" fill="#96a76f" stroke="#20282c" stroke-width="1"/>
<rect x="500" y="362" width="16" height="16" fill="#96a76f" stroke="#20282c" stroke-width="1"/>
<rect x="516" y="362" width="16" height="16" fill="#96a76f" stroke="#20282c" stroke-width="1"/>
<rect x="532" y="362" width="16" height="16" fill="#96a76f" stroke="#20282c" stroke-width="1"/>
<rect x="548" y="362" width="16" height="16" fill="#96a76f" stroke="#20282c" stroke-width="1"/>
<rect x="68" y="378" width="16" height="16" fill="#aa9272" stroke="#20282c" stroke-width="1"/>
<rect x="84" y="378" width="16" height="16" fill="#aa9272" stroke="#20282c" stroke-width="1"/>
<rect x="100" y="378" width="16" height="16" fill="#aa9272" stroke="#20282c" stroke-width="1"/>
<rect x="260" y="378" width="16" height="16" fill="#b6a36c" stroke="#20282c" stroke-width="1"/>
<rect x="276" y="378" width="16" height="16" fill="#b6a36c" stroke="#20282c" stroke-width="1"/>
<rect x="292" y="378" width="16" height="16" fill="#b6a36c" stroke="#20282c" stroke-width="1"/>
<rect x="308" y="378" width="16" height="16" fill="#b6a36c" stroke="#20282c" stroke-width="1"/>
<rect x="324" y="378" width="16" height="16" fill="#b6a36c" stroke="#20282c" stroke-width="1"/>
<rect x="516" y="378" width="16" height="16" fill="#96a76f" stroke="#20282c" stroke-width="1"/>
<rect x="68" y="394" width="16" height="16" fill="#aa9272" stroke="#20282c" stroke-width="1"/>
<rect x="84" y="394" width="16" height="16" fill="#aa9272" stroke="#20282c" stroke-width="1"/>
<rect x="100" y="394" width="16" height="16" fill="#aa9272" stroke="#20282c" stroke-width="1"/>
<rect x="292" y="394" width="16" height="16" fill="#b6a36c" stroke="#20282c" stroke-width="1"/>
<rect x="516" y="394" width="16" height="16" fill="#525e63" stroke="#20282c" stroke-width="1"/>
<rect x="68" y="410" width="16" height="16" fill="#aa9272" stroke="#20282c" stroke-width="1"/>
<rect x="84" y="410" width="16" height="16" fill="#aa9272" stroke="#20282c" stroke-width="1"/>
<rect x="100" y="410" width="16" height="16" fill="#aa9272" stroke="#20282c" stroke-width="1"/>
<rect x="260" y="410" width="16" height="16" fill="#b6a36c" stroke="#20282c" stroke-width="1"/>
<rect x="276" y="410" width="16" height="16" fill="#b6a36c" stroke="#20282c" stroke-width="1"/>
<rect x="292" y="410" width="16" height="16" fill="#b6a36c" stroke="#20282c" stroke-width="1"/>
<rect x="308" y="410" width="16" height="16" fill="#b6a36c" stroke="#20282c" stroke-width="1"/>
<rect x="324" y="410" width="16" height="16" fill="#b6a36c" stroke="#20282c" stroke-width="1"/>
<rect x="516" y="410" width="16" height="16" fill="#525e63" stroke="#20282c" stroke-width="1"/>
<rect x="532" y="410" width="16" height="16" fill="#525e63" stroke="#20282c" stroke-width="1"/>
<rect x="84" y="426" width="16" height="16" fill="#525e63" stroke="#20282c" stroke-width="1"/>
<rect x="292" y="426" width="16" height="16" fill="#525e63" stroke="#20282c" stroke-width="1"/>
<rect x="516" y="426" width="16" height="16" fill="#525e63" stroke="#20282c" stroke-width="1"/>
<rect x="532" y="426" width="16" height="16" fill="#525e63" stroke="#20282c" stroke-width="1"/>
<rect x="84" y="442" width="16" height="16" fill="#525e63" stroke="#20282c" stroke-width="1"/>
<rect x="292" y="442" width="16" height="16" fill="#525e63" stroke="#20282c" stroke-width="1"/>
<rect x="308" y="442" width="16" height="16" fill="#525e63" stroke="#20282c" stroke-width="1"/>
<rect x="516" y="442" width="16" height="16" fill="#525e63" stroke="#20282c" stroke-width="1"/>
<rect x="532" y="442" width="16" height="16" fill="#525e63" stroke="#20282c" stroke-width="1"/>
<rect x="84" y="458" width="16" height="16" fill="#525e63" stroke="#20282c" stroke-width="1"/>
<rect x="308" y="458" width="16" height="16" fill="#525e63" stroke="#20282c" stroke-width="1"/>
<rect x="324" y="458" width="16" height="16" fill="#525e63" stroke="#20282c" stroke-width="1"/>
<rect x="516" y="458" width="16" height="16" fill="#525e63" stroke="#20282c" stroke-width="1"/>
<rect x="532" y="458" width="16" height="16" fill="#525e63" stroke="#20282c" stroke-width="1"/>
<rect x="84" y="474" width="16" height="16" fill="#525e63" stroke="#20282c" stroke-width="1"/>
<rect x="308" y="474" width="16" height="16" fill="#525e63" stroke="#20282c" stroke-width="1"/>
<rect x="324" y="474" width="16" height="16" fill="#525e63" stroke="#20282c" stroke-width="1"/>
<rect x="516" y="474" width="16" height="16" fill="#525e63" stroke="#20282c" stroke-width="1"/>
<rect x="532" y="474" width="16" height="16" fill="#525e63" stroke="#20282c" stroke-width="1"/>
<rect x="84" y="490" width="16" height="16" fill="#525e63" stroke="#20282c" stroke-width="1"/>
<rect x="308" y="490" width="16" height="16" fill="#525e63" stroke="#20282c" stroke-width="1"/>
<rect x="324" y="490" width="16" height="16" fill="#525e63" stroke="#20282c" stroke-width="1"/>
<rect x="516" y="490" width="16" height="16" fill="#525e63" stroke="#20282c" stroke-width="1"/>
<rect x="532" y="490" width="16" height="16" fill="#525e63" stroke="#20282c" stroke-width="1"/>
<rect x="84" y="506" width="16" height="16" fill="#525e63" stroke="#20282c" stroke-width="1"/>
<rect x="308" y="506" width="16" height="16" fill="#525e63" stroke="#20282c" stroke-width="1"/>
<rect x="324" y="506" width="16" height="16" fill="#525e63" stroke="#20282c" stroke-width="1"/>
<rect x="516" y="506" width="16" height="16" fill="#525e63" stroke="#20282c" stroke-width="1"/>
<rect x="532" y="506" width="16" height="16" fill="#525e63" stroke="#20282c" stroke-width="1"/>
<rect x="84" y="522" width="16" height="16" fill="#525e63" stroke="#20282c" stroke-width="1"/>
<rect x="308" y="522" width="16" height="16" fill="#525e63" stroke="#20282c" stroke-width="1"/>
<rect x="516" y="522" width="16" height="16" fill="#525e63" stroke="#20282c" stroke-width="1"/>
<rect x="532" y="522" width="16" height="16" fill="#525e63" stroke="#20282c" stroke-width="1"/>
<rect x="36" y="538" width="16" height="16" fill="#769e99" stroke="#20282c" stroke-width="1"/>
<rect x="52" y="538" width="16" height="16" fill="#769e99" stroke="#20282c" stroke-width="1"/>
<rect x="68" y="538" width="16" height="16" fill="#769e99" stroke="#20282c" stroke-width="1"/>
<rect x="84" y="538" width="16" height="16" fill="#769e99" stroke="#20282c" stroke-width="1"/>
<rect x="100" y="538" width="16" height="16" fill="#769e99" stroke="#20282c" stroke-width="1"/>
<rect x="116" y="538" width="16" height="16" fill="#769e99" stroke="#20282c" stroke-width="1"/>
<rect x="132" y="538" width="16" height="16" fill="#769e99" stroke="#20282c" stroke-width="1"/>
<rect x="292" y="538" width="16" height="16" fill="#b58268" stroke="#20282c" stroke-width="1"/>
<rect x="308" y="538" width="16" height="16" fill="#b58268" stroke="#20282c" stroke-width="1"/>
<rect x="324" y="538" width="16" height="16" fill="#b58268" stroke="#20282c" stroke-width="1"/>
<rect x="516" y="538" width="16" height="16" fill="#525e63" stroke="#20282c" stroke-width="1"/>
<rect x="532" y="538" width="16" height="16" fill="#525e63" stroke="#20282c" stroke-width="1"/>
<rect x="36" y="554" width="16" height="16" fill="#769e99" stroke="#20282c" stroke-width="1"/>
<rect x="68" y="554" width="16" height="16" fill="#769e99" stroke="#20282c" stroke-width="1"/>
<rect x="84" y="554" width="16" height="16" fill="#769e99" stroke="#20282c" stroke-width="1"/>
<rect x="100" y="554" width="16" height="16" fill="#769e99" stroke="#20282c" stroke-width="1"/>
<rect x="132" y="554" width="16" height="16" fill="#769e99" stroke="#20282c" stroke-width="1"/>
<rect x="292" y="554" width="16" height="16" fill="#b58268" stroke="#20282c" stroke-width="1"/>
<rect x="308" y="554" width="16" height="16" fill="#b58268" stroke="#20282c" stroke-width="1"/>
<rect x="324" y="554" width="16" height="16" fill="#b58268" stroke="#20282c" stroke-width="1"/>
<rect x="516" y="554" width="16" height="16" fill="#525e63" stroke="#20282c" stroke-width="1"/>
<rect x="532" y="554" width="16" height="16" fill="#525e63" stroke="#20282c" stroke-width="1"/>
<rect x="36" y="570" width="16" height="16" fill="#769e99" stroke="#20282c" stroke-width="1"/>
<rect x="52" y="570" width="16" height="16" fill="#769e99" stroke="#20282c" stroke-width="1"/>
<rect x="68" y="570" width="16" height="16" fill="#769e99" stroke="#20282c" stroke-width="1"/>
<rect x="84" y="570" width="16" height="16" fill="#769e99" stroke="#20282c" stroke-width="1"/>
<rect x="100" y="570" width="16" height="16" fill="#769e99" stroke="#20282c" stroke-width="1"/>
<rect x="116" y="570" width="16" height="16" fill="#769e99" stroke="#20282c" stroke-width="1"/>
<rect x="132" y="570" width="16" height="16" fill="#769e99" stroke="#20282c" stroke-width="1"/>
<rect x="260" y="570" width="16" height="16" fill="#b58268" stroke="#20282c" stroke-width="1"/>
<rect x="276" y="570" width="16" height="16" fill="#b58268" stroke="#20282c" stroke-width="1"/>
<rect x="292" y="570" width="16" height="16" fill="#b58268" stroke="#20282c" stroke-width="1"/>
<rect x="308" y="570" width="16" height="16" fill="#b58268" stroke="#20282c" stroke-width="1"/>
<rect x="324" y="570" width="16" height="16" fill="#b58268" stroke="#20282c" stroke-width="1"/>
<rect x="340" y="570" width="16" height="16" fill="#b58268" stroke="#20282c" stroke-width="1"/>
<rect x="356" y="570" width="16" height="16" fill="#b58268" stroke="#20282c" stroke-width="1"/>
<rect x="516" y="570" width="16" height="16" fill="#525e63" stroke="#20282c" stroke-width="1"/>
<rect x="532" y="570" width="16" height="16" fill="#525e63" stroke="#20282c" stroke-width="1"/>
<rect x="36" y="586" width="16" height="16" fill="#769e99" stroke="#20282c" stroke-width="1"/>
<rect x="52" y="586" width="16" height="16" fill="#769e99" stroke="#20282c" stroke-width="1"/>
<rect x="68" y="586" width="16" height="16" fill="#769e99" stroke="#20282c" stroke-width="1"/>
<rect x="84" y="586" width="16" height="16" fill="#769e99" stroke="#20282c" stroke-width="1"/>
<rect x="100" y="586" width="16" height="16" fill="#769e99" stroke="#20282c" stroke-width="1"/>
<rect x="116" y="586" width="16" height="16" fill="#769e99" stroke="#20282c" stroke-width="1"/>
<rect x="132" y="586" width="16" height="16" fill="#769e99" stroke="#20282c" stroke-width="1"/>
<rect x="148" y="586" width="16" height="16" fill="#525e63" stroke="#20282c" stroke-width="1"/>
<rect x="164" y="586" width="16" height="16" fill="#525e63" stroke="#20282c" stroke-width="1"/>
<rect x="180" y="586" width="16" height="16" fill="#525e63" stroke="#20282c" stroke-width="1"/>
<rect x="196" y="586" width="16" height="16" fill="#525e63" stroke="#20282c" stroke-width="1"/>
<rect x="212" y="586" width="16" height="16" fill="#525e63" stroke="#20282c" stroke-width="1"/>
<rect x="228" y="586" width="16" height="16" fill="#525e63" stroke="#20282c" stroke-width="1"/>
<rect x="244" y="586" width="16" height="16" fill="#525e63" stroke="#20282c" stroke-width="1"/>
<rect x="260" y="586" width="16" height="16" fill="#b58268" stroke="#20282c" stroke-width="1"/>
<rect x="276" y="586" width="16" height="16" fill="#b58268" stroke="#20282c" stroke-width="1"/>
<rect x="292" y="586" width="16" height="16" fill="#b58268" stroke="#20282c" stroke-width="1"/>
<rect x="324" y="586" width="16" height="16" fill="#b58268" stroke="#20282c" stroke-width="1"/>
<rect x="340" y="586" width="16" height="16" fill="#b58268" stroke="#20282c" stroke-width="1"/>
<rect x="356" y="586" width="16" height="16" fill="#b58268" stroke="#20282c" stroke-width="1"/>
<rect x="372" y="586" width="16" height="16" fill="#525e63" stroke="#20282c" stroke-width="1"/>
<rect x="388" y="586" width="16" height="16" fill="#525e63" stroke="#20282c" stroke-width="1"/>
<rect x="404" y="586" width="16" height="16" fill="#525e63" stroke="#20282c" stroke-width="1"/>
<rect x="420" y="586" width="16" height="16" fill="#525e63" stroke="#20282c" stroke-width="1"/>
<rect x="436" y="586" width="16" height="16" fill="#525e63" stroke="#20282c" stroke-width="1"/>
<rect x="452" y="586" width="16" height="16" fill="#525e63" stroke="#20282c" stroke-width="1"/>
<rect x="468" y="586" width="16" height="16" fill="#525e63" stroke="#20282c" stroke-width="1"/>
<rect x="484" y="586" width="16" height="16" fill="#525e63" stroke="#20282c" stroke-width="1"/>
<rect x="500" y="586" width="16" height="16" fill="#525e63" stroke="#20282c" stroke-width="1"/>
<rect x="516" y="586" width="16" height="16" fill="#525e63" stroke="#20282c" stroke-width="1"/>
<rect x="36" y="602" width="16" height="16" fill="#769e99" stroke="#20282c" stroke-width="1"/>
<rect x="52" y="602" width="16" height="16" fill="#769e99" stroke="#20282c" stroke-width="1"/>
<rect x="68" y="602" width="16" height="16" fill="#769e99" stroke="#20282c" stroke-width="1"/>
<rect x="84" y="602" width="16" height="16" fill="#769e99" stroke="#20282c" stroke-width="1"/>
<rect x="100" y="602" width="16" height="16" fill="#769e99" stroke="#20282c" stroke-width="1"/>
<rect x="116" y="602" width="16" height="16" fill="#769e99" stroke="#20282c" stroke-width="1"/>
<rect x="132" y="602" width="16" height="16" fill="#769e99" stroke="#20282c" stroke-width="1"/>
<rect x="164" y="602" width="16" height="16" fill="#525e63" stroke="#20282c" stroke-width="1"/>
<rect x="180" y="602" width="16" height="16" fill="#525e63" stroke="#20282c" stroke-width="1"/>
<rect x="196" y="602" width="16" height="16" fill="#525e63" stroke="#20282c" stroke-width="1"/>
<rect x="212" y="602" width="16" height="16" fill="#525e63" stroke="#20282c" stroke-width="1"/>
<rect x="228" y="602" width="16" height="16" fill="#525e63" stroke="#20282c" stroke-width="1"/>
<rect x="260" y="602" width="16" height="16" fill="#b58268" stroke="#20282c" stroke-width="1"/>
<rect x="276" y="602" width="16" height="16" fill="#b58268" stroke="#20282c" stroke-width="1"/>
<rect x="292" y="602" width="16" height="16" fill="#b58268" stroke="#20282c" stroke-width="1"/>
<rect x="308" y="602" width="16" height="16" fill="#b58268" stroke="#20282c" stroke-width="1"/>
<rect x="324" y="602" width="16" height="16" fill="#b58268" stroke="#20282c" stroke-width="1"/>
<rect x="340" y="602" width="16" height="16" fill="#b58268" stroke="#20282c" stroke-width="1"/>
<rect x="356" y="602" width="16" height="16" fill="#b58268" stroke="#20282c" stroke-width="1"/>
<rect x="388" y="602" width="16" height="16" fill="#525e63" stroke="#20282c" stroke-width="1"/>
<rect x="404" y="602" width="16" height="16" fill="#525e63" stroke="#20282c" stroke-width="1"/>
<rect x="420" y="602" width="16" height="16" fill="#525e63" stroke="#20282c" stroke-width="1"/>
<rect x="436" y="602" width="16" height="16" fill="#525e63" stroke="#20282c" stroke-width="1"/>
<rect x="452" y="602" width="16" height="16" fill="#525e63" stroke="#20282c" stroke-width="1"/>
<rect x="468" y="602" width="16" height="16" fill="#525e63" stroke="#20282c" stroke-width="1"/>
<rect x="484" y="602" width="16" height="16" fill="#525e63" stroke="#20282c" stroke-width="1"/>
<rect x="500" y="602" width="16" height="16" fill="#525e63" stroke="#20282c" stroke-width="1"/>
<rect x="36" y="618" width="16" height="16" fill="#769e99" stroke="#20282c" stroke-width="1"/>
<rect x="68" y="618" width="16" height="16" fill="#769e99" stroke="#20282c" stroke-width="1"/>
<rect x="84" y="618" width="16" height="16" fill="#769e99" stroke="#20282c" stroke-width="1"/>
<rect x="100" y="618" width="16" height="16" fill="#769e99" stroke="#20282c" stroke-width="1"/>
<rect x="132" y="618" width="16" height="16" fill="#769e99" stroke="#20282c" stroke-width="1"/>
<rect x="292" y="618" width="16" height="16" fill="#b58268" stroke="#20282c" stroke-width="1"/>
<rect x="308" y="618" width="16" height="16" fill="#b58268" stroke="#20282c" stroke-width="1"/>
<rect x="324" y="618" width="16" height="16" fill="#b58268" stroke="#20282c" stroke-width="1"/>
<rect x="36" y="634" width="16" height="16" fill="#769e99" stroke="#20282c" stroke-width="1"/>
<rect x="52" y="634" width="16" height="16" fill="#769e99" stroke="#20282c" stroke-width="1"/>
<rect x="68" y="634" width="16" height="16" fill="#769e99" stroke="#20282c" stroke-width="1"/>
<rect x="84" y="634" width="16" height="16" fill="#769e99" stroke="#20282c" stroke-width="1"/>
<rect x="100" y="634" width="16" height="16" fill="#769e99" stroke="#20282c" stroke-width="1"/>
<rect x="116" y="634" width="16" height="16" fill="#769e99" stroke="#20282c" stroke-width="1"/>
<rect x="132" y="634" width="16" height="16" fill="#769e99" stroke="#20282c" stroke-width="1"/>
<rect x="292" y="634" width="16" height="16" fill="#b58268" stroke="#20282c" stroke-width="1"/>
<rect x="308" y="634" width="16" height="16" fill="#b58268" stroke="#20282c" stroke-width="1"/>
<rect x="324" y="634" width="16" height="16" fill="#b58268" stroke="#20282c" stroke-width="1"/>
<text x="215" y="278" fill="#172127" font-size="10" font-weight="bold">+1</text>
<text x="71" y="326" fill="#172127" font-size="10" font-weight="bold">+1</text>
<text x="87" y="326" fill="#172127" font-size="10" font-weight="bold">+1</text>
<text x="103" y="326" fill="#172127" font-size="10" font-weight="bold">+1</text>
<text x="71" y="342" fill="#172127" font-size="10" font-weight="bold">+1</text>
<text x="87" y="342" fill="#172127" font-size="10" font-weight="bold">+1</text>
<text x="103" y="342" fill="#172127" font-size="10" font-weight="bold">+1</text>
<text x="39" y="358" fill="#172127" font-size="10" font-weight="bold">+1</text>
<text x="55" y="358" fill="#172127" font-size="10" font-weight="bold">+1</text>
<text x="71" y="358" fill="#172127" font-size="10" font-weight="bold">+1</text>
<text x="87" y="358" fill="#172127" font-size="10" font-weight="bold">+1</text>
<text x="103" y="358" fill="#172127" font-size="10" font-weight="bold">+1</text>
<text x="119" y="358" fill="#172127" font-size="10" font-weight="bold">+1</text>
<text x="135" y="358" fill="#172127" font-size="10" font-weight="bold">+1</text>
<text x="71" y="374" fill="#172127" font-size="10" font-weight="bold">+1</text>
<text x="87" y="374" fill="#172127" font-size="10" font-weight="bold">+1</text>
<text x="103" y="374" fill="#172127" font-size="10" font-weight="bold">+1</text>
<text x="71" y="390" fill="#172127" font-size="10" font-weight="bold">+1</text>
<text x="87" y="390" fill="#172127" font-size="10" font-weight="bold">+1</text>
<text x="103" y="390" fill="#172127" font-size="10" font-weight="bold">+1</text>
<text x="71" y="406" fill="#172127" font-size="10" font-weight="bold">+1</text>
<text x="87" y="406" fill="#172127" font-size="10" font-weight="bold">+1</text>
<text x="103" y="406" fill="#172127" font-size="10" font-weight="bold">+1</text>
<text x="71" y="422" fill="#172127" font-size="10" font-weight="bold">+1</text>
<text x="87" y="422" fill="#172127" font-size="10" font-weight="bold">+1</text>
<text x="103" y="422" fill="#172127" font-size="10" font-weight="bold">+1</text>
<text x="39" y="550" fill="#172127" font-size="10" font-weight="bold">+1</text>
<text x="55" y="550" fill="#172127" font-size="10" font-weight="bold">+1</text>
<text x="71" y="550" fill="#172127" font-size="10" font-weight="bold">+1</text>
<text x="87" y="550" fill="#172127" font-size="10" font-weight="bold">+1</text>
<text x="103" y="550" fill="#172127" font-size="10" font-weight="bold">+1</text>
<text x="119" y="550" fill="#172127" font-size="10" font-weight="bold">+1</text>
<text x="135" y="550" fill="#172127" font-size="10" font-weight="bold">+1</text>
<text x="39" y="566" fill="#172127" font-size="10" font-weight="bold">+1</text>
<text x="71" y="566" fill="#172127" font-size="10" font-weight="bold">+1</text>
<text x="87" y="566" fill="#172127" font-size="10" font-weight="bold">+1</text>
<text x="103" y="566" fill="#172127" font-size="10" font-weight="bold">+1</text>
<text x="135" y="566" fill="#172127" font-size="10" font-weight="bold">+1</text>
<text x="39" y="582" fill="#172127" font-size="10" font-weight="bold">+1</text>
<text x="55" y="582" fill="#172127" font-size="10" font-weight="bold">+1</text>
<text x="71" y="582" fill="#172127" font-size="10" font-weight="bold">+1</text>
<text x="87" y="582" fill="#172127" font-size="10" font-weight="bold">+1</text>
<text x="103" y="582" fill="#172127" font-size="10" font-weight="bold">+1</text>
<text x="119" y="582" fill="#172127" font-size="10" font-weight="bold">+1</text>
<text x="135" y="582" fill="#172127" font-size="10" font-weight="bold">+1</text>
<text x="39" y="598" fill="#172127" font-size="10" font-weight="bold">+1</text>
<text x="55" y="598" fill="#172127" font-size="10" font-weight="bold">+1</text>
<text x="71" y="598" fill="#172127" font-size="10" font-weight="bold">+1</text>
<text x="87" y="598" fill="#172127" font-size="10" font-weight="bold">+1</text>
<text x="103" y="598" fill="#172127" font-size="10" font-weight="bold">+1</text>
<text x="119" y="598" fill="#172127" font-size="10" font-weight="bold">+1</text>
<text x="135" y="598" fill="#172127" font-size="10" font-weight="bold">+1</text>
<text x="343" y="598" fill="#172127" font-size="10" font-weight="bold">-1</text>
<text x="39" y="614" fill="#172127" font-size="10" font-weight="bold">+1</text>
<text x="55" y="614" fill="#172127" font-size="10" font-weight="bold">+1</text>
<text x="71" y="614" fill="#172127" font-size="10" font-weight="bold">+1</text>
<text x="87" y="614" fill="#172127" font-size="10" font-weight="bold">+1</text>
<text x="103" y="614" fill="#172127" font-size="10" font-weight="bold">+1</text>
<text x="119" y="614" fill="#172127" font-size="10" font-weight="bold">+1</text>
<text x="135" y="614" fill="#172127" font-size="10" font-weight="bold">+1</text>
<text x="39" y="630" fill="#172127" font-size="10" font-weight="bold">+1</text>
<text x="71" y="630" fill="#172127" font-size="10" font-weight="bold">+1</text>
<text x="87" y="630" fill="#172127" font-size="10" font-weight="bold">+1</text>
<text x="103" y="630" fill="#172127" font-size="10" font-weight="bold">+1</text>
<text x="135" y="630" fill="#172127" font-size="10" font-weight="bold">+1</text>
<text x="39" y="646" fill="#172127" font-size="10" font-weight="bold">+1</text>
<text x="55" y="646" fill="#172127" font-size="10" font-weight="bold">+1</text>
<text x="71" y="646" fill="#172127" font-size="10" font-weight="bold">+1</text>
<text x="87" y="646" fill="#172127" font-size="10" font-weight="bold">+1</text>
<text x="103" y="646" fill="#172127" font-size="10" font-weight="bold">+1</text>
<text x="119" y="646" fill="#172127" font-size="10" font-weight="bold">+1</text>
<text x="135" y="646" fill="#172127" font-size="10" font-weight="bold">+1</text>
<path d="M220,274 L236,274" stroke="#cbe9ec" stroke-width="3"><title>stores/93,93/94,93</title></path>
<path d="M220,274 L220,290" stroke="#cbe9ec" stroke-width="3"><title>stores/93,93/93,94</title></path>
<path d="M92,306 L92,322" stroke="#cbe9ec" stroke-width="3"><title>stores/85,95/85,96</title></path>
<path d="M140,354 L156,354" stroke="#cbe9ec" stroke-width="3"><title>stores/88,98/89,98</title></path>
<path d="M92,418 L92,434" stroke="#cbe9ec" stroke-width="3"><title>stores/85,102/85,103</title></path>
<path d="M92,530 L92,546" stroke="#cbe9ec" stroke-width="3"><title>stores/85,109/85,110</title></path>
<path d="M348,578 L348,594" stroke="#cbe9ec" stroke-width="3"><title>stores/101,112/101,113</title></path>
<path d="M140,594 L156,594" stroke="#cbe9ec" stroke-width="3"><title>stores/88,113/89,113</title></path>
<path d="M332,594 L348,594" stroke="#cbe9ec" stroke-width="3"><title>stores/100,113/101,113</title></path>
<path d="M348,594 L364,594" stroke="#cbe9ec" stroke-width="3"><title>stores/101,113/102,113</title></path>
<path d="M348,594 L348,610" stroke="#cbe9ec" stroke-width="3"><title>stores/101,113/101,114</title></path>
<rect x="86" y="476" width="12" height="12" fill="#e9ae4e"><title>route.stores/edge.gate_1.goal</title></rect>
<text x="295" y="359" fill="#fff" font-weight="bold" font-size="14">E</text>
<text x="87" y="599" fill="#fff" font-weight="bold" font-size="14">X</text>
<text x="24" y="682" font-size="12">E entrance · X objective · gold barrier · ±1 height · pale link stair/bridge/pit edge</text>
<rect x="24" y="701" width="13" height="13" fill="#aa9272"/>
<text x="46" y="713" font-size="13">Watch Gallery · Narrow gallery with a central crossing</text>
<rect x="24" y="724" width="13" height="13" fill="#769e99"/>
<text x="46" y="736" font-size="13">Redoubt Chamber · Four solid piers with a clear axial approach</text>
<rect x="24" y="747" width="13" height="13" fill="#b58268"/>
<text x="46" y="759" font-size="13">Drain Crossing · Four approaches around a central pier</text>
<rect x="24" y="770" width="13" height="13" fill="#8d8eaf"/>
<text x="46" y="782" font-size="13">Records Alcove · Sheltered rear alcove</text>
<rect x="24" y="793" width="13" height="13" fill="#96a76f"/>
<text x="46" y="805" font-size="13">Records Alcove · Sheltered rear alcove</text>
<rect x="24" y="816" width="13" height="13" fill="#b6a36c"/>
<text x="46" y="828" font-size="13">Receiving Bay · Long central loading aisle</text>
</g></svg>
